<svg version="1.1" viewBox="0.0 0.0 960.0 720.0" fill="none" stroke="none" stroke-linecap="square" stroke-miterlimit="10" xmlns:xlink="http://www.w3.org/1999/xlink" xmlns="http://www.w3.org/2000/svg"><clipPath id="p.0"><path d="m0 0l960.0 0l0 720.0l-960.0 0l0 -720.0z" clip-rule="nonzero"/></clipPath><g clip-path="url(#p.0)"><path fill="#ffffff" d="m0 0l960.0 0l0 720.0l-960.0 0z" fill-rule="evenodd"/><path fill="#000000" fill-opacity="0.0" d="m395.99713 50.29659l177.16534 0l0 77.19685l-177.16534 0z" fill-rule="evenodd"/><path stroke="#000000" stroke-width="2.0" stroke-linejoin="round" stroke-linecap="butt" d="m395.99713 50.29659l177.16534 0l0 77.19685l-177.16534 0z" fill-rule="evenodd"/><path fill="#000000" d="m457.7341 68.96221l13.40625 28.734375l-3.09375 0l-4.515625 -9.453125l-12.375 0l-4.5 9.453125l-3.203125 0l13.578125 -28.734375l0.703125 0zm-0.34375 6.09375l-4.953125 10.40625l9.828125 0l-4.875 -10.40625zm17.792969 1.390625l2.703125 0l0 3.90625q1.625 -2.234375 3.734375 -3.34375q2.109375 -1.109375 4.703125 -1.109375q4.53125 0 7.75 3.265625q3.234375 3.25 3.234375 7.84375q0 4.6875 -3.203125 7.96875q-3.1875 3.265625 -7.703125 3.265625q-2.53125 0 -4.671875 -1.046875q-2.125 -1.0625 -3.84375 -3.15625l0 11.4375l-2.703125 0l0 -29.03125zm10.9375 2.09375q-3.5625 0 -6.0 2.484375q-2.421875 2.46875 -2.421875 6.15625q0 2.421875 1.078125 4.359375q1.09375 1.9375 3.109375 3.078125q2.015625 1.125 4.265625 1.125q2.203125 0 4.140625 -1.140625q1.953125 -1.140625 3.109375 -3.1875q1.15625 -2.0625 1.15625 -4.3125q0 -2.265625 -1.15625 -4.296875q-1.140625 -2.03125 -3.078125 -3.140625q-1.921875 -1.125 -4.203125 -1.125zm16.347656 -2.09375l2.703125 0l0 3.90625q1.625 -2.234375 3.734375 -3.34375q2.109375 -1.109375 4.7031555 -1.109375q4.53125 0 7.75 3.265625q3.234375 3.25 3.234375 7.84375q0 4.6875 -3.203125 7.96875q-3.1875 3.265625 -7.703125 3.265625q-2.5312805 0 -4.6719055 -1.046875q-2.125 -1.0625 -3.84375 -3.15625l0 11.4375l-2.703125 0l0 -29.03125zm10.9375305 2.09375q-3.5625305 0 -6.0000305 2.484375q-2.421875 2.46875 -2.421875 6.15625q0 2.421875 1.078125 4.359375q1.09375 1.9375 3.109375 3.078125q2.015625 1.125 4.2656555 1.125q2.203125 0 4.140625 -1.140625q1.953125 -1.140625 3.109375 -3.1875q1.15625 -2.0625 1.15625 -4.3125q0 -2.265625 -1.15625 -4.296875q-1.140625 -2.03125 -3.078125 -3.140625q-1.921875 -1.125 -4.203125 -1.125z" fill-rule="nonzero"/><path fill="#000000" fill-opacity="0.0" d="m395.99713 201.91077l177.16534 0l0 77.19684l-177.16534 0z" fill-rule="evenodd"/><path stroke="#000000" stroke-width="2.0" stroke-linejoin="round" stroke-linecap="butt" d="m395.99713 201.91077l177.16534 0l0 77.19684l-177.16534 0z" fill-rule="evenodd"/><path fill="#000000" d="m439.15402 220.57639l5.65625 0q3.421875 0 5.25 0.8125q1.84375 0.8125 2.90625 2.5q1.0625 1.671875 1.0625 3.71875q0 1.921875 -0.9375 3.5q-0.9375 1.5625 -2.75 2.53125q2.25 0.765625 3.453125 1.796875q1.21875 1.015625 1.890625 2.484375q0.671875 1.453125 0.671875 3.140625q0 3.46875 -2.53125 5.859375q-2.53125 2.390625 -6.78125 2.390625l-7.890625 0l0 -28.734375zm2.8125 2.8125l0 9.203125l1.640625 0q2.984375 0 4.390625 -0.546875q1.40625 -0.5625 2.21875 -1.765625q0.828125 -1.203125 0.828125 -2.671875q0 -1.96875 -1.375 -3.09375q-1.375 -1.125 -4.390625 -1.125l-3.3125 0zm0 12.09375l0 11.015625l3.546875 0q3.15625 0 4.609375 -0.609375q1.46875 -0.625 2.359375 -1.921875q0.890625 -1.3125 0.890625 -2.84375q0 -1.90625 -1.25 -3.328125q-1.25 -1.4375 -3.4375 -1.96875q-1.46875 -0.34375 -5.09375 -0.34375l-1.625 0zm29.6875 -7.96875q4.90625 0 8.125 3.546875q2.921875 3.25 2.921875 7.6875q0 4.453125 -3.09375 7.78125q-3.09375 3.328125 -7.953125 3.328125q-4.890625 0 -7.984375 -3.328125q-3.09375 -3.328125 -3.09375 -7.78125q0 -4.421875 2.9375 -7.65625q3.21875 -3.578125 8.140625 -3.578125zm0 2.671875q-3.40625 0 -5.84375 2.53125q-2.4375 2.515625 -2.4375 6.078125q0 2.3125 1.109375 4.3125q1.109375 1.984375 3.0 3.078125q1.90625 1.078125 4.171875 1.078125q2.265625 0 4.15625 -1.078125q1.890625 -1.09375 3.0 -3.078125q1.125 -2.0 1.125 -4.3125q0 -3.5625 -2.453125 -6.078125q-2.453125 -2.53125 -5.828125 -2.53125zm37.347656 -10.328125l0 29.453125l-2.703125 0l0 -3.65625q-1.71875 2.09375 -3.859375 3.15625q-2.140625 1.046875 -4.671875 1.046875q-4.515625 0 -7.71875 -3.265625q-3.1875 -3.28125 -3.1875 -7.96875q0 -4.59375 3.21875 -7.84375q3.234375 -3.265625 7.765625 -3.265625q2.609375 0 4.734375 1.109375q2.125 1.109375 3.71875 3.34375l0 -12.109375l2.703125 0zm-10.9375 10.296875q-2.296875 0 -4.234375 1.125q-1.921875 1.109375 -3.0625 3.140625q-1.140625 2.03125 -1.140625 4.296875q0 2.25 1.140625 4.3125q1.15625 2.046875 3.09375 3.1875q1.953125 1.140625 4.171875 1.140625q2.25 0 4.265625 -1.125q2.015625 -1.140625 3.09375 -3.078125q1.078125 -1.9375 1.078125 -4.359375q0 -3.6875 -2.4375 -6.15625q-2.421875 -2.484375 -5.96875 -2.484375zm14.839874 -2.09375l2.890625 0l7.296875 16.359375l7.09375 -16.359375l2.90625 0l-12.671875 29.03125l-2.890625 0l4.109375 -9.390625l-8.734375 -19.640625z" fill-rule="nonzero"/><path fill="#000000" fill-opacity="0.0" d="m670.2079 201.91077l177.16534 0l0 77.19684l-177.16534 0z" fill-rule="evenodd"/><path stroke="#000000" stroke-width="2.0" stroke-linejoin="round" stroke-linecap="butt" d="m670.2079 201.91077l177.16534 0l0 77.19684l-177.16534 0z" fill-rule="evenodd"/><path fill="#000000" d="m700.6109 220.57639l14.390625 0l0 2.828125l-11.546875 0l0 8.984375l11.546875 0l0 2.84375l-11.546875 0l0 14.078125l-2.84375 0l0 -28.734375zm29.003906 6.9375q4.90625 0 8.125 3.546875q2.921875 3.25 2.921875 7.6875q0 4.453125 -3.09375 7.78125q-3.09375 3.328125 -7.953125 3.328125q-4.890625 0 -7.984375 -3.328125q-3.09375 -3.328125 -3.09375 -7.78125q0 -4.421875 2.9375 -7.65625q3.21875 -3.578125 8.140625 -3.578125zm0 2.671875q-3.40625 0 -5.84375 2.53125q-2.4375 2.515625 -2.4375 6.078125q0 2.3125 1.109375 4.3125q1.109375 1.984375 3.0 3.078125q1.90625 1.078125 4.171875 1.078125q2.265625 0 4.15625 -1.078125q1.890625 -1.09375 3.0 -3.078125q1.125 -2.0 1.125 -4.3125q0 -3.5625 -2.453125 -6.078125q-2.453125 -2.53125 -5.828125 -2.53125zm26.191406 -2.671875q4.90625 0 8.125 3.546875q2.921875 3.25 2.921875 7.6875q0 4.453125 -3.09375 7.78125q-3.09375 3.328125 -7.953125 3.328125q-4.890625 0 -7.984375 -3.328125q-3.09375 -3.328125 -3.09375 -7.78125q0 -4.421875 2.9375 -7.65625q3.21875 -3.578125 8.140625 -3.578125zm0 2.671875q-3.40625 0 -5.84375 2.53125q-2.4375 2.515625 -2.4375 6.078125q0 2.3125 1.109375 4.3125q1.109375 1.984375 3.0 3.078125q1.90625 1.078125 4.171875 1.078125q2.265625 0 4.15625 -1.078125q1.890625 -1.09375 3.0 -3.078125q1.125 -2.0 1.125 -4.3125q0 -3.5625 -2.453125 -6.078125q-2.453125 -2.53125 -5.828125 -2.53125zm18.519531 -10.015625l2.75 0l0 7.890625l4.328125 0l0 2.34375l-4.328125 0l0 18.90625l-2.75 0l0 -18.90625l-3.734375 0l0 -2.34375l3.734375 0l0 -7.890625zm29.054688 22.09375l2.3125 1.203125q-1.140625 2.234375 -2.625 3.609375q-1.484375 1.359375 -3.34375 2.078125q-1.84375 0.703125 -4.1875 0.703125q-5.203125 0 -8.140625 -3.40625q-2.921875 -3.40625 -2.921875 -7.703125q0 -4.046875 2.484375 -7.21875q3.140625 -4.015625 8.421875 -4.015625q5.421875 0 8.671875 4.125q2.296875 2.90625 2.34375 7.265625l-19.109375 0q0.078125 3.703125 2.359375 6.078125q2.296875 2.375 5.65625 2.375q1.609375 0 3.140625 -0.5625q1.546875 -0.578125 2.609375 -1.515625q1.078125 -0.9375 2.328125 -3.015625zm0 -5.734375q-0.546875 -2.1875 -1.59375 -3.484375q-1.046875 -1.3125 -2.765625 -2.109375q-1.71875 -0.8125 -3.609375 -0.8125q-3.125 0 -5.375 2.015625q-1.640625 1.46875 -2.46875 4.390625l15.8125 0zm7.0742188 -8.46875l2.796875 0l0 3.109375q1.25 -1.84375 2.625 -2.75q1.390625 -0.90625 2.890625 -0.90625q1.140625 0 2.421875 0.71875l-1.421875 2.3125q-0.859375 -0.375 -1.4375 -0.375q-1.375 0 -2.640625 1.125q-1.265625 1.125 -1.9375 3.484375q-0.5 1.8125 -0.5 7.34375l0 7.1875l-2.796875 0l0 -21.25z" fill-rule="nonzero"/><path fill="#000000" fill-opacity="0.0" d="m112.6273 201.91077l177.16537 0l0 77.19684l-177.16537 0z" fill-rule="evenodd"/><path stroke="#000000" stroke-width="2.0" stroke-linejoin="round" stroke-linecap="butt" d="m112.6273 201.91077l177.16537 0l0 77.19684l-177.16537 0z" fill-rule="evenodd"/><path fill="#000000" d="m131.62599 220.57639l2.890625 0l0 12.046875l14.609375 0l0 -12.046875l2.890625 0l0 28.734375l-2.890625 0l0 -13.875l-14.609375 0l0 13.875l-2.890625 0l0 -28.734375zm44.808594 21.6875l2.3125 1.203125q-1.140625 2.234375 -2.625 3.609375q-1.484375 1.359375 -3.34375 2.078125q-1.84375 0.703125 -4.1875 0.703125q-5.203125 0 -8.140625 -3.40625q-2.921875 -3.40625 -2.921875 -7.703125q0 -4.046875 2.484375 -7.21875q3.140625 -4.015625 8.421875 -4.015625q5.421875 0 8.671875 4.125q2.296875 2.90625 2.34375 7.265625l-19.109375 0q0.078125 3.703125 2.359375 6.078125q2.296875 2.375 5.65625 2.375q1.609375 0 3.140625 -0.5625q1.546875 -0.578125 2.609375 -1.515625q1.078125 -0.9375 2.328125 -3.015625zm0 -5.734375q-0.546875 -2.1875 -1.59375 -3.484375q-1.046875 -1.3125 -2.765625 -2.109375q-1.71875 -0.8125 -3.609375 -0.8125q-3.125 0 -5.375 2.015625q-1.640625 1.46875 -2.46875 4.390625l15.8125 0zm29.277344 -8.46875l0 21.25l-2.6875 0l0 -3.65625q-1.71875 2.09375 -3.859375 3.15625q-2.140625 1.046875 -4.6875 1.046875q-4.5 0 -7.703125 -3.265625q-3.1875 -3.28125 -3.1875 -7.96875q0 -4.59375 3.21875 -7.84375q3.21875 -3.265625 7.75 -3.265625q2.625 0 4.734375 1.109375q2.125 1.109375 3.734375 3.34375l0 -3.90625l2.6875 0zm-10.9375 2.09375q-2.28125 0 -4.21875 1.125q-1.9375 1.109375 -3.078125 3.140625q-1.140625 2.03125 -1.140625 4.296875q0 2.25 1.15625 4.3125q1.15625 2.046875 3.09375 3.1875q1.9375 1.140625 4.171875 1.140625q2.25 0 4.25 -1.125q2.015625 -1.140625 3.09375 -3.078125q1.09375 -1.9375 1.09375 -4.359375q0 -3.6875 -2.4375 -6.15625q-2.421875 -2.484375 -5.984375 -2.484375zm38.308594 -10.296875l0 29.453125l-2.703125 0l0 -3.65625q-1.71875 2.09375 -3.859375 3.15625q-2.140625 1.046875 -4.671875 1.046875q-4.515625 0 -7.71875 -3.265625q-3.1875 -3.28125 -3.1875 -7.96875q0 -4.59375 3.21875 -7.84375q3.234375 -3.265625 7.765625 -3.265625q2.609375 0 4.734375 1.109375q2.125 1.109375 3.71875 3.34375l0 -12.109375l2.703125 0zm-10.9375 10.296875q-2.296875 0 -4.234375 1.125q-1.921875 1.109375 -3.0625 3.140625q-1.140625 2.03125 -1.140625 4.296875q0 2.25 1.140625 4.3125q1.15625 2.046875 3.09375 3.1875q1.953125 1.140625 4.171875 1.140625q2.25 0 4.265625 -1.125q2.015625 -1.140625 3.09375 -3.078125q1.078125 -1.9375 1.078125 -4.359375q0 -3.6875 -2.4375 -6.15625q-2.421875 -2.484375 -5.96875 -2.484375zm35.011703 12.109375l2.3125 1.203125q-1.140625 2.234375 -2.625 3.609375q-1.4843597 1.359375 -3.3437347 2.078125q-1.84375 0.703125 -4.1875 0.703125q-5.203125 0 -8.140625 -3.40625q-2.921875 -3.40625 -2.921875 -7.703125q0 -4.046875 2.484375 -7.21875q3.140625 -4.015625 8.421875 -4.015625q5.421875 0 8.67186 4.125q2.296875 2.90625 2.34375 7.265625l-19.10936 0q0.078125 3.703125 2.359375 6.078125q2.296875 2.375 5.65625 2.375q1.609375 0 3.140625 -0.5625q1.546875 -0.578125 2.609375 -1.515625q1.078125 -0.9375 2.3281097 -3.015625zm0 -5.734375q-0.546875 -2.1875 -1.5937347 -3.484375q-1.046875 -1.3125 -2.765625 -2.109375q-1.71875 -0.8125 -3.609375 -0.8125q-3.125 0 -5.375 2.015625q-1.640625 1.46875 -2.46875 4.390625l15.812485 0zm7.0742188 -8.46875l2.796875 0l0 3.109375q1.25 -1.84375 2.625 -2.75q1.390625 -0.90625 2.890625 -0.90625q1.140625 0 2.421875 0.71875l-1.421875 2.3125q-0.859375 -0.375 -1.4375 -0.375q-1.375 0 -2.640625 1.125q-1.265625 1.125 -1.9375 3.484375q-0.5 1.8125 -0.5 7.34375l0 7.1875l-2.796875 0l0 -21.25z" fill-rule="nonzero"/><path fill="#000000" fill-opacity="0.0" d="m522.8317 353.52493l267.4961 0l0 77.19684l-267.4961 0z" fill-rule="evenodd"/><path stroke="#000000" stroke-width="2.0" stroke-linejoin="round" stroke-linecap="butt" d="m522.8317 353.52493l267.4961 0l0 77.19684l-267.4961 0z" fill-rule="evenodd"/><path fill="#000000" d="m547.1989 372.19055l14.390625 0l0 2.828125l-11.546875 0l0 8.984375l11.546875 0l0 2.84375l-11.546875 0l0 14.078125l-2.84375 0l0 -28.734375zm40.11328 7.484375l0 21.25l-2.6875 0l0 -3.65625q-1.71875 2.09375 -3.859375 3.15625q-2.140625 1.046875 -4.6875 1.046875q-4.5 0 -7.703125 -3.265625q-3.1875 -3.28125 -3.1875 -7.96875q0 -4.59375 3.21875 -7.84375q3.21875 -3.265625 7.75 -3.265625q2.625 0 4.734375 1.109375q2.125 1.109375 3.734375 3.34375l0 -3.90625l2.6875 0zm-10.9375 2.09375q-2.28125 0 -4.21875 1.125q-1.9375 1.109375 -3.078125 3.140625q-1.140625 2.03125 -1.140625 4.296875q0 2.25 1.15625 4.3125q1.15625 2.046875 3.09375 3.1875q1.9375 1.140625 4.171875 1.140625q2.25 0 4.25 -1.125q2.015625 -1.140625 3.09375 -3.078125q1.09375 -1.9375 1.09375 -4.359375q0 -3.6875 -2.4375 -6.15625q-2.421875 -2.484375 -5.984375 -2.484375zm15.074219 -2.09375l2.921875 0l7.109375 15.46875l7.046875 -15.46875l2.921875 0l-9.71875 21.25l-0.484375 0l-9.796875 -21.25zm34.246094 -0.546875q4.90625 0 8.125 3.546875q2.921875 3.25 2.921875 7.6875q0 4.453125 -3.09375 7.78125q-3.09375 3.328125 -7.953125 3.328125q-4.890625 0 -7.984375 -3.328125q-3.09375 -3.328125 -3.09375 -7.78125q0 -4.421875 2.9375 -7.65625q3.21875 -3.578125 8.140625 -3.578125zm0 2.671875q-3.40625 0 -5.84375 2.53125q-2.4375 2.515625 -2.4375 6.078125q0 2.3125 1.109375 4.3125q1.109375 1.984375 3.0 3.078125q1.90625 1.078125 4.171875 1.078125q2.265625 0 4.15625 -1.078125q1.890625 -1.09375 3.0 -3.078125q1.125 -2.0 1.125 -4.3125q0 -3.5625 -2.453125 -6.078125q-2.453125 -2.53125 -5.828125 -2.53125zm15.097656 -2.125l2.796875 0l0 3.109375q1.25 -1.84375 2.625 -2.75q1.390625 -0.90625 2.890625 -0.90625q1.140625 0 2.421875 0.71875l-1.421875 2.3125q-0.859375 -0.375 -1.4375 -0.375q-1.375 0 -2.640625 1.125q-1.265625 1.125 -1.9375 3.484375q-0.5 1.8125 -0.5 7.34375l0 7.1875l-2.796875 0l0 -21.25zm14.015625 -8.75q0.9375 0 1.59375 0.671875q0.671875 0.65625 0.671875 1.59375q0 0.921875 -0.671875 1.59375q-0.65625 0.65625 -1.59375 0.65625q-0.90625 0 -1.578125 -0.65625q-0.65625 -0.671875 -0.65625 -1.59375q0 -0.9375 0.65625 -1.59375q0.671875 -0.671875 1.578125 -0.671875zm-1.359375 8.75l2.75 0l0 21.25l-2.75 0l0 -21.25zm10.8046875 -7.890625l2.75 0l0 7.890625l4.328125 0l0 2.34375l-4.328125 0l0 18.90625l-2.75 0l0 -18.90625l-3.734375 0l0 -2.34375l3.734375 0l0 -7.890625zm29.054688 22.09375l2.3125 1.203125q-1.140625 2.234375 -2.625 3.609375q-1.484375 1.359375 -3.34375 2.078125q-1.84375 0.703125 -4.1875 0.703125q-5.203125 0 -8.140625 -3.40625q-2.921875 -3.40625 -2.921875 -7.703125q0 -4.046875 2.484375 -7.21875q3.140625 -4.015625 8.421875 -4.015625q5.421875 0 8.671875 4.125q2.296875 2.90625 2.34375 7.265625l-19.109375 0q0.078125 3.703125 2.359375 6.078125q2.296875 2.375 5.65625 2.375q1.609375 0 3.140625 -0.5625q1.546875 -0.578125 2.609375 -1.515625q1.078125 -0.9375 2.328125 -3.015625zm0 -5.734375q-0.546875 -2.1875 -1.59375 -3.484375q-1.046875 -1.3125 -2.765625 -2.109375q-1.71875 -0.8125 -3.609375 -0.8125q-3.125 0 -5.375 2.015625q-1.640625 1.46875 -2.46875 4.390625l15.8125 0zm18.792969 -6.140625l-1.765625 1.8125q-2.1875 -2.125 -4.265625 -2.125q-1.328125 0 -2.28125 0.875q-0.953125 0.875 -0.953125 2.046875q0 1.03125 0.78125 1.96875q0.78125 0.96875 3.28125 2.25q3.046875 1.578125 4.140625 3.046875q1.078125 1.484375 1.078125 3.34375q0 2.609375 -1.84375 4.4375q-1.828125 1.8125 -4.578125 1.8125q-1.84375 0 -3.515625 -0.796875q-1.65625 -0.8125 -2.75 -2.21875l1.71875 -1.953125q2.078125 2.375 4.421875 2.375q1.640625 0 2.796875 -1.046875q1.15625 -1.0625 1.15625 -2.5q0 -1.171875 -0.765625 -2.078125q-0.765625 -0.90625 -3.4375 -2.265625q-2.875 -1.484375 -3.90625 -2.9375q-1.03125 -1.4375 -1.03125 -3.296875q0 -2.421875 1.640625 -4.015625q1.65625 -1.609375 4.171875 -1.609375q2.9375 0 5.90625 2.875zm5.2929688 -9.8125l2.890625 0l0 25.953125l11.03125 0l0 2.78125l-13.921875 0l0 -28.734375zm18.976562 -1.265625q0.9375 0 1.59375 0.671875q0.671875 0.65625 0.671875 1.59375q0 0.921875 -0.671875 1.59375q-0.65625 0.65625 -1.59375 0.65625q-0.90625 0 -1.578125 -0.65625q-0.65625 -0.671875 -0.65625 -1.59375q0 -0.9375 0.65625 -1.59375q0.671875 -0.671875 1.578125 -0.671875zm-1.359375 8.75l2.75 0l0 21.25l-2.75 0l0 -21.25zm19.101562 2.328125l-1.765625 1.8125q-2.1875 -2.125 -4.265625 -2.125q-1.328125 0 -2.28125 0.875q-0.953125 0.875 -0.953125 2.046875q0 1.03125 0.78125 1.96875q0.78125 0.96875 3.28125 2.25q3.046875 1.578125 4.140625 3.046875q1.078125 1.484375 1.078125 3.34375q0 2.609375 -1.84375 4.4375q-1.828125 1.8125 -4.578125 1.8125q-1.84375 0 -3.515625 -0.796875q-1.65625 -0.8125 -2.75 -2.21875l1.71875 -1.953125q2.078125 2.375 4.421875 2.375q1.640625 0 2.796875 -1.046875q1.15625 -1.0625 1.15625 -2.5q0 -1.171875 -0.765625 -2.078125q-0.765625 -0.90625 -3.4375 -2.265625q-2.875 -1.484375 -3.90625 -2.9375q-1.03125 -1.4375 -1.03125 -3.296875q0 -2.421875 1.640625 -4.015625q1.65625 -1.609375 4.171875 -1.609375q2.9375 0 5.90625 2.875zm7.2304688 -10.21875l2.75 0l0 7.890625l4.328125 0l0 2.34375l-4.328125 0l0 18.90625l-2.75 0l0 -18.90625l-3.734375 0l0 -2.34375l3.734375 0l0 -7.890625z" fill-rule="nonzero"/><path fill="#000000" fill-opacity="0.0" d="m169.67323 353.52493l267.49603 0l0 77.19684l-267.49603 0z" fill-rule="evenodd"/><path stroke="#000000" stroke-width="2.0" stroke-linejoin="round" stroke-linecap="butt" d="m169.67323 353.52493l267.49603 0l0 77.19684l-267.49603 0z" fill-rule="evenodd"/><path fill="#000000" d="m208.94275 372.19055l14.390625 0l0 2.828125l-11.546875 0l0 8.984375l11.546875 0l0 2.84375l-11.546875 0l0 14.078125l-2.84375 0l0 -28.734375zm19.894531 -1.265625q0.9375 0 1.59375 0.671875q0.671875 0.65625 0.671875 1.59375q0 0.921875 -0.671875 1.59375q-0.65625 0.65625 -1.59375 0.65625q-0.90625 0 -1.578125 -0.65625q-0.65625 -0.671875 -0.65625 -1.59375q0 -0.9375 0.65625 -1.59375q0.671875 -0.671875 1.578125 -0.671875zm-1.359375 8.75l2.75 0l0 21.25l-2.75 0l0 -21.25zm8.0078125 -8.203125l2.734375 0l0 29.453125l-2.734375 0l0 -29.453125zm10.8046875 0.3125l2.75 0l0 7.890625l4.328125 0l0 2.34375l-4.328125 0l0 18.90625l-2.75 0l0 -18.90625l-3.734375 0l0 -2.34375l3.734375 0l0 -7.890625zm29.054688 22.09375l2.3125 1.203125q-1.140625 2.234375 -2.625 3.609375q-1.484375 1.359375 -3.34375 2.078125q-1.84375 0.703125 -4.1875 0.703125q-5.203125 0 -8.140625 -3.40625q-2.921875 -3.40625 -2.921875 -7.703125q0 -4.046875 2.484375 -7.21875q3.140625 -4.015625 8.421875 -4.015625q5.421875 0 8.671875 4.125q2.296875 2.90625 2.34375 7.265625l-19.109375 0q0.078125 3.703125 2.359375 6.078125q2.296875 2.375 5.65625 2.375q1.609375 0 3.140625 -0.5625q1.546875 -0.578125 2.609375 -1.515625q1.078125 -0.9375 2.328125 -3.015625zm0 -5.734375q-0.546875 -2.1875 -1.59375 -3.484375q-1.046875 -1.3125 -2.765625 -2.109375q-1.71875 -0.8125 -3.609375 -0.8125q-3.125 0 -5.375 2.015625q-1.640625 1.46875 -2.46875 4.390625l15.8125 0zm7.0742188 -8.46875l2.796875 0l0 3.109375q1.25 -1.84375 2.625 -2.75q1.390625 -0.90625 2.890625 -0.90625q1.140625 0 2.421875 0.71875l-1.421875 2.3125q-0.859375 -0.375 -1.4375 -0.375q-1.375 0 -2.640625 1.125q-1.265625 1.125 -1.9375 3.484375q-0.5 1.8125 -0.5 7.34375l0 7.1875l-2.796875 0l0 -21.25zm30.953125 14.203125l2.3125 1.203125q-1.140625 2.234375 -2.625 3.609375q-1.484375 1.359375 -3.34375 2.078125q-1.84375 0.703125 -4.1875 0.703125q-5.203125 0 -8.140625 -3.40625q-2.921875 -3.40625 -2.921875 -7.703125q0 -4.046875 2.484375 -7.21875q3.140625 -4.015625 8.421875 -4.015625q5.421875 0 8.671875 4.125q2.296875 2.90625 2.34375 7.265625l-19.109375 0q0.078125 3.703125 2.359375 6.078125q2.296875 2.375 5.65625 2.375q1.609375 0 3.140625 -0.5625q1.546875 -0.578125 2.609375 -1.515625q1.078125 -0.9375 2.328125 -3.015625zm0 -5.734375q-0.546875 -2.1875 -1.59375 -3.484375q-1.046875 -1.3125 -2.765625 -2.109375q-1.71875 -0.8125 -3.609375 -0.8125q-3.125 0 -5.375 2.015625q-1.640625 1.46875 -2.46875 4.390625l15.8125 0zm29.324219 -16.671875l0 29.453125l-2.703125 0l0 -3.65625q-1.71875 2.09375 -3.859375 3.15625q-2.140625 1.046875 -4.671875 1.046875q-4.515625 0 -7.71875 -3.265625q-3.1875 -3.28125 -3.1875 -7.96875q0 -4.59375 3.21875 -7.84375q3.234375 -3.265625 7.765625 -3.265625q2.609375 0 4.734375 1.109375q2.125 1.109375 3.71875 3.34375l0 -12.109375l2.703125 0zm-10.9375 10.296875q-2.296875 0 -4.234375 1.125q-1.921875 1.109375 -3.0625 3.140625q-1.140625 2.03125 -1.140625 4.296875q0 2.25 1.140625 4.3125q1.15625 2.046875 3.09375 3.1875q1.953125 1.140625 4.171875 1.140625q2.25 0 4.265625 -1.125q2.015625 -1.140625 3.09375 -3.078125q1.078125 -1.9375 1.078125 -4.359375q0 -3.6875 -2.4375 -6.15625q-2.421875 -2.484375 -5.96875 -2.484375zm17.574219 -9.578125l2.890625 0l0 25.953125l11.03125 0l0 2.78125l-13.921875 0l0 -28.734375zm18.976562 -1.265625q0.9375 0 1.59375 0.671875q0.671875 0.65625 0.671875 1.59375q0 0.921875 -0.671875 1.59375q-0.65625 0.65625 -1.59375 0.65625q-0.90625 0 -1.578125 -0.65625q-0.65625 -0.671875 -0.65625 -1.59375q0 -0.9375 0.65625 -1.59375q0.671875 -0.671875 1.578125 -0.671875zm-1.359375 8.75l2.75 0l0 21.25l-2.75 0l0 -21.25zm19.101562 2.328125l-1.765625 1.8125q-2.1875 -2.125 -4.265625 -2.125q-1.328125 0 -2.28125 0.875q-0.953125 0.875 -0.953125 2.046875q0 1.03125 0.78125 1.96875q0.78125 0.96875 3.28125 2.25q3.046875 1.578125 4.140625 3.046875q1.078125 1.484375 1.078125 3.34375q0 2.609375 -1.84375 4.4375q-1.828125 1.8125 -4.578125 1.8125q-1.84375 0 -3.515625 -0.796875q-1.65625 -0.8125 -2.75 -2.21875l1.71875 -1.953125q2.078125 2.375 4.421875 2.375q1.640625 0 2.796875 -1.046875q1.15625 -1.0625 1.15625 -2.5q0 -1.171875 -0.765625 -2.078125q-0.765625 -0.90625 -3.4375 -2.265625q-2.875 -1.484375 -3.90625 -2.9375q-1.03125 -1.4375 -1.03125 -3.296875q0 -2.421875 1.640625 -4.015625q1.65625 -1.609375 4.171875 -1.609375q2.9375 0 5.90625 2.875zm7.2304688 -10.21875l2.75 0l0 7.890625l4.328125 0l0 2.34375l-4.328125 0l0 18.90625l-2.75 0l0 -18.90625l-3.734375 0l0 -2.34375l3.734375 0l0 -7.890625z" fill-rule="nonzero"/><path fill="#000000" fill-opacity="0.0" d="m346.253 505.1391l267.4961 0l0 77.19684l-267.4961 0z" fill-rule="evenodd"/><path stroke="#000000" stroke-width="2.0" stroke-linejoin="round" stroke-linecap="butt" d="m346.253 505.1391l267.4961 0l0 77.19684l-267.4961 0z" fill-rule="evenodd"/><path fill="#000000" d="m387.0362 552.5391l0 -28.734375l5.953125 0q6.453125 0 9.359375 1.03125q4.171875 1.46875 6.53125 5.09375q2.359375 3.609375 2.359375 8.609375q0 4.3125 -1.875 7.59375q-1.859375 3.28125 -4.84375 4.84375q-2.96875 1.5625 -8.34375 1.5625l-9.140625 0zm2.75 -2.71875l3.328125 0q5.953125 0 8.25 -0.734375q3.25 -1.0625 5.09375 -3.796875q1.859375 -2.75 1.859375 -6.71875q0 -4.15625 -2.015625 -7.109375q-2.0 -2.953125 -5.59375 -4.046875q-2.703125 -0.8125 -8.890625 -0.8125l-2.03125 0l0 23.21875zm27.515625 -27.28125q0.9375 0 1.59375 0.671875q0.671875 0.65625 0.671875 1.59375q0 0.921875 -0.671875 1.59375q-0.65625 0.65625 -1.59375 0.65625q-0.90625 0 -1.578125 -0.65625q-0.65625 -0.671875 -0.65625 -1.59375q0 -0.9375 0.65625 -1.59375q0.671875 -0.671875 1.578125 -0.671875zm-1.359375 8.75l2.75 0l0 21.25l-2.75 0l0 -21.25zm19.101562 2.328125l-1.765625 1.8125q-2.1875 -2.125 -4.265625 -2.125q-1.328125 0 -2.28125 0.875q-0.953125 0.875 -0.953125 2.046875q0 1.03125 0.78125 1.96875q0.78125 0.96875 3.28125 2.25q3.046875 1.578125 4.140625 3.046875q1.078125 1.484375 1.078125 3.34375q0 2.609375 -1.84375 4.4375q-1.828125 1.8125 -4.578125 1.8125q-1.84375 0 -3.515625 -0.796875q-1.65625 -0.8125 -2.75 -2.21875l1.71875 -1.953125q2.078125 2.375 4.421875 2.375q1.640625 0 2.796875 -1.046875q1.15625 -1.0625 1.15625 -2.5q0 -1.171875 -0.765625 -2.078125q-0.765625 -0.90625 -3.4375 -2.265625q-2.875 -1.484375 -3.90625 -2.9375q-1.03125 -1.4375 -1.03125 -3.296875q0 -2.421875 1.640625 -4.015625q1.65625 -1.609375 4.171875 -1.609375q2.9375 0 5.90625 2.875zm4.8867188 -2.328125l2.703125 0l0 3.90625q1.625 -2.234375 3.734375 -3.34375q2.109375 -1.109375 4.703125 -1.109375q4.53125 0 7.75 3.265625q3.234375 3.25 3.234375 7.84375q0 4.6875 -3.203125 7.96875q-3.1875 3.265625 -7.703125 3.265625q-2.53125 0 -4.671875 -1.046875q-2.125 -1.0625 -3.84375 -3.15625l0 11.4375l-2.703125 0l0 -29.03125zm10.9375 2.09375q-3.5625 0 -6.0 2.484375q-2.421875 2.46875 -2.421875 6.15625q0 2.421875 1.078125 4.359375q1.09375 1.9375 3.109375 3.078125q2.015625 1.125 4.265625 1.125q2.203125 0 4.140625 -1.140625q1.953125 -1.140625 3.109375 -3.1875q1.15625 -2.0625 1.15625 -4.3125q0 -2.265625 -1.15625 -4.296875q-1.140625 -2.03125 -3.078125 -3.140625q-1.921875 -1.125 -4.203125 -1.125zm15.894531 -10.296875l2.734375 0l0 29.453125l-2.734375 0l0 -29.453125zm29.585938 8.203125l0 21.25l-2.6875 0l0 -3.65625q-1.71875 2.09375 -3.859375 3.15625q-2.140625 1.046875 -4.6875 1.046875q-4.5 0 -7.703125 -3.265625q-3.1875 -3.28125 -3.1875 -7.96875q0 -4.59375 3.21875 -7.84375q3.21875 -3.265625 7.75 -3.265625q2.625 0 4.734375 1.109375q2.125 1.109375 3.734375 3.34375l0 -3.90625l2.6875 0zm-10.9375 2.09375q-2.28125 0 -4.21875 1.125q-1.9375 1.109375 -3.078125 3.140625q-1.140625 2.03125 -1.140625 4.296875q0 2.25 1.15625 4.3125q1.15625 2.046875 3.09375 3.1875q1.9375 1.140625 4.171875 1.140625q2.25 0 4.25 -1.125q2.015625 -1.140625 3.09375 -3.078125q1.09375 -1.9375 1.09375 -4.359375q0 -3.6875 -2.4375 -6.15625q-2.421875 -2.484375 -5.984375 -2.484375zm14.808594 -2.09375l2.890625 0l7.296875 16.359375l7.09375 -16.359375l2.90625 0l-12.671875 29.03125l-2.890625 0l4.109375 -9.390625l-8.734375 -19.640625zm24.179688 -7.484375l2.890625 0l0 25.953125l11.03125 0l0 2.78125l-13.921875 0l0 -28.734375zm18.976562 -1.265625q0.9375 0 1.59375 0.671875q0.671875 0.65625 0.671875 1.59375q0 0.921875 -0.671875 1.59375q-0.65625 0.65625 -1.59375 0.65625q-0.90625 0 -1.578125 -0.65625q-0.65625 -0.671875 -0.65625 -1.59375q0 -0.9375 0.65625 -1.59375q0.671875 -0.671875 1.578125 -0.671875zm-1.359375 8.75l2.75 0l0 21.25l-2.75 0l0 -21.25zm19.101562 2.328125l-1.765625 1.8125q-2.1875 -2.125 -4.265625 -2.125q-1.328125 0 -2.28125 0.875q-0.953125 0.875 -0.953125 2.046875q0 1.03125 0.78125 1.96875q0.78125 0.96875 3.28125 2.25q3.046875 1.578125 4.140625 3.046875q1.078125 1.484375 1.078125 3.34375q0 2.609375 -1.84375 4.4375q-1.828125 1.8125 -4.578125 1.8125q-1.84375 0 -3.515625 -0.796875q-1.65625 -0.8125 -2.75 -2.21875l1.71875 -1.953125q2.078125 2.375 4.421875 2.375q1.640625 0 2.796875 -1.046875q1.15625 -1.0625 1.15625 -2.5q0 -1.171875 -0.765625 -2.078125q-0.765625 -0.90625 -3.4375 -2.265625q-2.875 -1.484375 -3.90625 -2.9375q-1.03125 -1.4375 -1.03125 -3.296875q0 -2.421875 1.640625 -4.015625q1.65625 -1.609375 4.171875 -1.609375q2.9375 0 5.90625 2.875zm7.2304688 -10.21875l2.75 0l0 7.890625l4.328125 0l0 2.34375l-4.328125 0l0 18.90625l-2.75 0l0 -18.90625l-3.734375 0l0 -2.34375l3.734375 0l0 -7.890625z" fill-rule="nonzero"/><path fill="#000000" fill-opacity="0.0" d="m484.5798 127.49344l0 74.4252" fill-rule="evenodd"/><path stroke="#000000" stroke-width="1.0" stroke-linejoin="round" stroke-linecap="butt" d="m484.5798 127.49344l0 68.4252" fill-rule="evenodd"/><path fill="#000000" stroke="#000000" stroke-width="1.0" stroke-linecap="butt" d="m482.92807 195.91864l1.6517334 4.538086l1.6517334 -4.538086z" fill-rule="evenodd"/><path fill="#000000" fill-opacity="0.0" d="m484.5798 127.49344l274.20474 74.4252" fill-rule="evenodd"/><path stroke="#000000" stroke-width="1.0" stroke-linejoin="round" stroke-linecap="butt" d="m484.5798 127.49344l268.4142 72.85353" fill-rule="evenodd"/><path fill="#000000" stroke="#000000" stroke-width="1.0" stroke-linecap="butt" d="m752.5614 201.94102l4.812256 -0.40533447l-3.9469604 -2.7827759z" fill-rule="evenodd"/><path fill="#000000" fill-opacity="0.0" d="m484.5798 127.49344l-283.37006 74.4252" fill-rule="evenodd"/><path stroke="#000000" stroke-width="1.0" stroke-linejoin="round" stroke-linecap="butt" d="m484.5798 127.49344l-277.5669 72.90102" fill-rule="evenodd"/><path fill="#000000" stroke="#000000" stroke-width="1.0" stroke-linecap="butt" d="m206.59332 198.79692l-3.9696503 2.750351l4.8088226 0.44474792z" fill-rule="evenodd"/><path fill="#000000" fill-opacity="0.0" d="m484.5798 279.1076l-181.16534 74.4252" fill-rule="evenodd"/><path stroke="#000000" stroke-width="1.0" stroke-linejoin="round" stroke-linecap="butt" d="m484.5798 279.1076l-175.61542 72.14523" fill-rule="evenodd"/><path fill="#000000" stroke="#000000" stroke-width="1.0" stroke-linecap="butt" d="m308.33673 349.725l-3.5700378 3.2522888l4.825348 -0.19662476z" fill-rule="evenodd"/><path fill="#000000" fill-opacity="0.0" d="m484.5798 279.1076l172.00003 74.4252" fill-rule="evenodd"/><path stroke="#000000" stroke-width="1.0" stroke-linejoin="round" stroke-linecap="butt" d="m484.5798 279.1076l166.49338 72.04248" fill-rule="evenodd"/><path fill="#000000" stroke="#000000" stroke-width="1.0" stroke-linecap="butt" d="m650.4173 352.666l4.820801 0.2862854l-3.5089722 -3.3180847z" fill-rule="evenodd"/><path fill="#000000" fill-opacity="0.0" d="m303.42126 430.72177l176.56693 74.4252" fill-rule="evenodd"/><path stroke="#000000" stroke-width="1.0" stroke-linejoin="round" stroke-linecap="butt" d="m303.42126 430.72177l171.03802 72.094696" fill-rule="evenodd"/><path fill="#000000" stroke="#000000" stroke-width="1.0" stroke-linecap="butt" d="m473.81772 504.33853l4.8233643 0.2406311l-3.5402222 -3.284729z" fill-rule="evenodd"/><path fill="#000000" fill-opacity="0.0" d="m656.5798 430.72177l-176.56693 74.4252" fill-rule="evenodd"/><path stroke="#000000" stroke-width="1.0" stroke-linejoin="round" stroke-linecap="butt" d="m656.5798 430.72177l-171.03802 72.094696" fill-rule="evenodd"/><path fill="#000000" stroke="#000000" stroke-width="1.0" stroke-linecap="butt" d="m484.90018 501.29443l-3.5402222 3.284729l4.8233337 -0.2406311z" fill-rule="evenodd"/></g></svg>